<svg viewBox="0 0 32 32" xmlns="http://www.w3.org/2000/svg">
  <rect width="32" height="32" rx="7" fill="#F4EFE6"/>
  <path d="M9 7c-3 0-4.5 2.5-4.5 5.5S6 18 8.5 18.5C10 19 11 18 11 16.5" stroke="#1B1A18" stroke-width="1.6" stroke-linecap="round" fill="none"/>
  <path d="M23 7c3 0 4.5 2.5 4.5 5.5S26 18 23.5 18.5C22 19 21 18 21 16.5" stroke="#1B1A18" stroke-width="1.6" stroke-linecap="round" fill="none"/>
  <path d="M11 13c0-3 2.2-5 5-5s5 2 5 5c0 4-2.4 7.5-5 10-2.6-2.5-5-6-5-10Z" stroke="#1B1A18" stroke-width="1.6" stroke-linejoin="round" fill="none"/>
  <circle cx="14" cy="14" r="1" fill="#1B1A18"/><circle cx="18" cy="14" r="1" fill="#1B1A18"/>
</svg>
